<?xml version="1.0" encoding="UTF-8"?>
<svg width="30px" height="27px" viewBox="0 0 30 27" version="1.1" xmlns="http://www.w3.org/2000/svg" xmlns:xlink="http://www.w3.org/1999/xlink">
    <title>038697BF-6761-4B05-9922-272610FAB283</title>
    <defs>
        <filter color-interpolation-filters="auto" id="filter-1">
            <feColorMatrix in="SourceGraphic" type="matrix" values="0 0 0 0 0.313659 0 0 0 0 0.431416 0 0 0 0 0.874401 0 0 0 1.000000 0"></feColorMatrix>
        </filter>
    </defs>
    <g id="Page-1" stroke="none" stroke-width="1" fill="none" fill-rule="evenodd">
        <g id="3.-Users" transform="translate(-1257.000000, -318.000000)">
            <g id="Group-5" transform="translate(223.500000, 269.000000)">
                <g id="calendar-lines-pen-copy" transform="translate(0.000000, 33.950450)" filter="url(#filter-1)">
                    <g transform="translate(1033.500000, 15.049550)">
                        <path d="M25.6921093,12.6097051 C26.504968,11.796765 27.8232581,11.796765 28.6413275,12.6097051 L29.386448,13.3601114 C30.2045173,14.1730515 30.2045173,15.4914737 29.386448,16.309625 L27.8545219,17.8417045 L24.1601832,14.1417846 L25.6921093,12.6097051 Z M26.6769189,19.0194254 L19.9447813,25.7522374 C19.7311453,25.9658947 19.4601924,26.1170182 19.168397,26.1899744 L16.0368066,26.9768587 C15.7502218,27.0446038 15.4532157,26.9612253 15.2447904,26.7579902 C15.0363651,26.5495441 14.952995,26.2472971 15.0259439,25.9189943 L15.8075388,22.8287796 C15.8804876,22.5369549 16.031596,22.271186 16.2452319,22.0106283 L22.9773696,15.3247167 L26.6769189,19.0194254 Z" id="Shape" fill="#000000" fill-rule="nonzero"></path>
                        <path d="M4.92857143,1.6875 C4.92857143,0.755683594 5.66272321,0 6.57142857,0 C7.48013393,0 8.21428571,0.755683594 8.21428571,1.6875 L8.21428571,3.375 L14.7857143,3.375 L14.7857143,1.6875 C14.7857143,0.755683594 15.5198661,0 16.4285714,0 C17.3372768,0 18.0714286,0.755683594 18.0714286,1.6875 L18.0714286,3.375 L20.5357143,3.375 C21.8962054,3.375 23,4.50826172 23,5.90625 L23,8.4375 L0,8.4375 L0,5.90625 C0,4.50826172 1.10328125,3.375 2.46428571,3.375 L4.92857143,3.375 L4.92857143,1.6875 Z M23,12.4242187 L14.8524554,20.7931641 C14.4314732,21.2255859 14.1337054,21.76875 13.9899554,22.3646484 L13.2147321,25.5339844 C13.0966518,26.0296875 13.1274554,26.5359375 13.2866071,27 L2.46428571,27 C1.10328125,27 0,25.8662109 0,24.46875 L0,10.125 L23,10.125 L23,12.4242187 Z M6.16071429,16.875 L13.5535714,16.875 C14.2363839,16.875 14.7857143,16.3107422 14.7857143,15.609375 C14.7857143,14.9080078 14.2363839,14.34375 13.5535714,14.34375 L6.16071429,14.34375 C5.47790179,14.34375 4.92857143,14.9080078 4.92857143,15.609375 C4.92857143,16.3107422 5.47790179,16.875 6.16071429,16.875 Z M6.16071429,19.40625 C5.47790179,19.40625 4.92857143,19.9705078 4.92857143,20.671875 C4.92857143,21.3732422 5.47790179,21.9375 6.16071429,21.9375 L10.2678571,21.9375 C10.9506696,21.9375 11.5,21.3732422 11.5,20.671875 C11.5,19.9705078 10.9506696,19.40625 10.2678571,19.40625 L6.16071429,19.40625 Z" id="Shape" fill="#000000" fill-rule="nonzero" opacity="0.4"></path>
                    </g>
                </g>
            </g>
        </g>
    </g>
</svg>