<?xml version="1.0" encoding="UTF-8"?>
<svg width="54px" height="54px" viewBox="0 0 54 54" version="1.1" xmlns="http://www.w3.org/2000/svg" xmlns:xlink="http://www.w3.org/1999/xlink">
    <title>9B358541-917B-483B-B015-5C140B799850</title>
    <defs>
        <circle id="path-1" cx="19" cy="19" r="19"></circle>
        <filter x="-31.6%" y="-31.6%" width="163.2%" height="163.2%" filterUnits="objectBoundingBox" id="filter-3">
            <feOffset dx="0" dy="0" in="SourceAlpha" result="shadowOffsetOuter1"></feOffset>
            <feGaussianBlur stdDeviation="4" in="shadowOffsetOuter1" result="shadowBlurOuter1"></feGaussianBlur>
            <feComposite in="shadowBlurOuter1" in2="SourceAlpha" operator="out" result="shadowBlurOuter1"></feComposite>
            <feColorMatrix values="0 0 0 0 0.313658893   0 0 0 0 0.431415915   0 0 0 0 0.874401152  0 0 0 1 0" type="matrix" in="shadowBlurOuter1"></feColorMatrix>
        </filter>
        <filter color-interpolation-filters="auto" id="filter-4">
            <feColorMatrix in="SourceGraphic" type="matrix" values="0 0 0 0 0.313659 0 0 0 0 0.431416 0 0 0 0 0.874401 0 0 0 1.000000 0"></feColorMatrix>
        </filter>
    </defs>
    <g id="Page-1" stroke="none" stroke-width="1" fill="none" fill-rule="evenodd">
        <g id="3.-Schedule" transform="translate(-1125.000000, -286.000000)">
            <g id="Group-2-Copy-2" transform="translate(222.000000, 277.000000)">
                <g id="Group-7-Copy" transform="translate(911.000000, 17.000000)">
                    <mask id="mask-2" fill="white">
                        <use xlink:href="#path-1"></use>
                    </mask>
                    <g id="Oval">
                        <use fill="black" fill-opacity="1" filter="url(#filter-3)" xlink:href="#path-1"></use>
                        <use fill-opacity="0.25" fill="#506EDF" fill-rule="evenodd" xlink:href="#path-1"></use>
                    </g>
                    <g filter="url(#filter-4)" id="user-doctor-hair">
                        <g mask="url(#mask-2)">
                            <g transform="translate(3.015873, 1.809524)" fill="#000000" fill-rule="nonzero" id="Shape">
                                <path d="M6.91415816,9.34920635 C6.91415816,4.18596106 11.1455357,0 16.2202806,0 C21.4258929,0 25.5918367,4.18596106 25.5918367,9.34920635 L25.5918367,10.5178571 C25.5918367,15.6818328 21.4258929,19.8670635 16.2202806,19.8670635 C11.1455357,19.8670635 6.91415816,15.6818328 6.91415816,10.5178571 L6.91415816,9.34920635 Z M21.6149235,7.01190476 L21.4549745,7.01190476 C20.0299745,7.01190476 18.7067602,6.31071429 17.8561224,5.21948661 C16.8600765,6.98780134 14.9625,8.18055556 12.7304847,8.18055556 L10.5857143,8.18055556 C10.5130102,8.56036706 10.4039541,8.94748264 10.4039541,9.34920635 L10.4039541,10.5178571 C10.4039541,13.746255 13.0721939,16.3611111 16.2202806,16.3611111 C19.4992347,16.3611111 22.0366071,13.746255 22.0366071,10.5178571 L22.0366071,9.34920635 C22.0366071,8.51654266 21.927551,7.72770337 21.6149235,7.01190476 Z M20.8733418,26.4407242 C18.9321429,26.959313 17.3835459,28.7926339 17.3835459,30.969246 L17.3835459,32.7222222 C17.3835459,33.0289931 17.5725765,33.3284598 17.7906888,33.5475818 L18.9539541,34.7162326 C19.4047194,35.1763889 20.146301,35.1763889 20.5970663,34.7162326 C21.055102,34.2633805 21.055102,33.5183656 20.5970663,33.0655134 L19.7100765,32.2401538 L19.7100765,30.969246 C19.7100765,29.6764261 20.8151786,28.6319444 22.0366071,28.6319444 C23.3889031,28.6319444 24.4285714,29.6764261 24.4285714,30.969246 L24.4285714,32.2401538 L23.6070153,33.0655134 C23.1489796,33.5183656 23.1489796,34.2633805 23.6070153,34.7162326 C24.0577806,35.1763889 24.7993622,35.1763889 25.2501276,34.7162326 L26.4133929,33.5475818 C26.6315051,33.3284598 26.755102,33.0289931 26.755102,32.7222222 L26.755102,30.969246 C26.755102,28.7926339 25.2719388,26.959313 23.2653061,26.4407242 L23.2653061,23.6213542 C28.5799745,24.7461806 32.5714286,29.4792163 32.5714286,35.1544767 C32.5714286,36.3888641 31.5681122,37.3968254 30.3394133,37.3968254 L2.23346939,37.3968254 C0.999681122,37.3968254 0,36.3888641 0,35.1544767 C0,29.4792163 3.99072704,24.7461806 9.30612245,23.6213542 L9.30612245,27.0469618 C7.62665816,27.5509425 6.39795918,29.1140129 6.39795918,30.969246 C6.39795918,33.2262029 8.22283163,35.0595238 10.4693878,35.0595238 C12.7159439,35.0595238 14.5408163,33.2262029 14.5408163,30.969246 C14.5408163,29.1140129 13.3121173,27.5509425 11.6326531,27.0469618 L11.6326531,23.3730159 L11.7271684,23.3730159 L20.8442602,23.3730159 L20.9387755,23.3730159 L20.8733418,26.4407242 Z M12.148852,30.969246 C12.148852,31.940687 11.436352,32.7222222 10.4039541,32.7222222 C9.50242347,32.7222222 8.65905612,31.940687 8.65905612,30.969246 C8.65905612,29.9978051 9.50242347,29.2162698 10.4039541,29.2162698 C11.436352,29.2162698 12.148852,29.9978051 12.148852,30.969246 Z"></path>
                            </g>
                        </g>
                    </g>
                </g>
            </g>
        </g>
    </g>
</svg>