<?xml version="1.0" encoding="UTF-8"?>
<svg width="79px" height="79px" viewBox="0 0 79 79" version="1.1" xmlns="http://www.w3.org/2000/svg" xmlns:xlink="http://www.w3.org/1999/xlink">
    <title>8E60553E-6974-4BB0-9453-168F840FA8F2</title>
    <defs>
        <circle id="path-1" cx="31.5" cy="31.5" r="31.5"></circle>
        <filter x="-19.0%" y="-19.0%" width="138.1%" height="138.1%" filterUnits="objectBoundingBox" id="filter-3">
            <feOffset dx="0" dy="0" in="SourceAlpha" result="shadowOffsetOuter1"></feOffset>
            <feGaussianBlur stdDeviation="4" in="shadowOffsetOuter1" result="shadowBlurOuter1"></feGaussianBlur>
            <feComposite in="shadowBlurOuter1" in2="SourceAlpha" operator="out" result="shadowBlurOuter1"></feComposite>
            <feColorMatrix values="0 0 0 0 0.313658893   0 0 0 0 0.431415915   0 0 0 0 0.874401152  0 0 0 1 0" type="matrix" in="shadowBlurOuter1"></feColorMatrix>
        </filter>
        <filter color-interpolation-filters="auto" id="filter-4">
            <feColorMatrix in="SourceGraphic" type="matrix" values="0 0 0 0 0.313659 0 0 0 0 0.431416 0 0 0 0 0.874401 0 0 0 1.000000 0"></feColorMatrix>
        </filter>
    </defs>
    <g id="Page-1" stroke="none" stroke-width="1" fill="none" fill-rule="evenodd">
        <g id="3.-Users" transform="translate(-252.000000, -113.000000)">
            <g id="Group-2" transform="translate(224.000000, 84.000000)">
                <g id="Group-7" transform="translate(36.000000, 37.000000)">
                    <mask id="mask-2" fill="white">
                        <use xlink:href="#path-1"></use>
                    </mask>
                    <g id="Oval">
                        <use fill="black" fill-opacity="1" filter="url(#filter-3)" xlink:href="#path-1"></use>
                        <use fill-opacity="0.25" fill="#506EDF" fill-rule="evenodd" xlink:href="#path-1"></use>
                    </g>
                    <g filter="url(#filter-4)" id="user-doctor-hair">
                        <g mask="url(#mask-2)">
                            <g transform="translate(5.000000, 3.000000)" fill="#000000" fill-rule="nonzero" id="Shape">
                                <path d="M11.4629464,15.5 C11.4629464,6.93988281 18.478125,0 26.8915179,0 C35.521875,0 42.4285714,6.93988281 42.4285714,15.5 L42.4285714,17.4375 C42.4285714,25.9988281 35.521875,32.9375 26.8915179,32.9375 C18.478125,32.9375 11.4629464,25.9988281 11.4629464,17.4375 L11.4629464,15.5 Z M35.8352679,11.625 L35.5700893,11.625 C33.2075893,11.625 31.0138393,10.4625 29.6035714,8.65335937 C27.9522321,11.5850391 24.80625,13.5625 21.1058036,13.5625 L17.55,13.5625 C17.4294643,14.1921875 17.2486607,14.8339844 17.2486607,15.5 L17.2486607,17.4375 C17.2486607,22.7898438 21.6723214,27.125 26.8915179,27.125 C32.3276786,27.125 36.534375,22.7898438 36.534375,17.4375 L36.534375,15.5 C36.534375,14.1195313 36.3535714,12.8117188 35.8352679,11.625 Z M34.6058036,43.8359375 C31.3875,44.6957031 28.8200893,47.7351563 28.8200893,51.34375 L28.8200893,54.25 C28.8200893,54.7585938 29.1334821,55.2550781 29.4950893,55.6183594 L31.4236607,57.5558594 C32.1709821,58.31875 33.4004464,58.31875 34.1477679,57.5558594 C34.9071429,56.8050781 34.9071429,55.5699219 34.1477679,54.8191406 L32.6772321,53.4507813 L32.6772321,51.34375 C32.6772321,49.2003906 34.509375,47.46875 36.534375,47.46875 C38.7763393,47.46875 40.5,49.2003906 40.5,51.34375 L40.5,53.4507813 L39.1379464,54.8191406 C38.3785714,55.5699219 38.3785714,56.8050781 39.1379464,57.5558594 C39.8852679,58.31875 41.1147321,58.31875 41.8620536,57.5558594 L43.790625,55.6183594 C44.1522321,55.2550781 44.3571429,54.7585938 44.3571429,54.25 L44.3571429,51.34375 C44.3571429,47.7351563 41.8982143,44.6957031 38.5714286,43.8359375 L38.5714286,39.1617188 C47.3825893,41.0265625 54,48.8734375 54,58.2824219 C54,60.3289063 52.3366071,62 50.2995536,62 L3.70285714,62 C1.65736607,62 0,60.3289063 0,58.2824219 C0,48.8734375 6.61620536,41.0265625 15.4285714,39.1617188 L15.4285714,44.8410156 C12.6441964,45.6765625 10.6071429,48.2679688 10.6071429,51.34375 C10.6071429,55.0855469 13.6325893,58.125 17.3571429,58.125 C21.0816964,58.125 24.1071429,55.0855469 24.1071429,51.34375 C24.1071429,48.2679688 22.0700893,45.6765625 19.2857143,44.8410156 L19.2857143,38.75 L19.4424107,38.75 L34.5575893,38.75 L34.7142857,38.75 L34.6058036,43.8359375 Z M20.1415179,51.34375 C20.1415179,52.9542969 18.9602679,54.25 17.2486607,54.25 C15.7540179,54.25 14.3558036,52.9542969 14.3558036,51.34375 C14.3558036,49.7332031 15.7540179,48.4375 17.2486607,48.4375 C18.9602679,48.4375 20.1415179,49.7332031 20.1415179,51.34375 Z"></path>
                            </g>
                        </g>
                    </g>
                </g>
            </g>
        </g>
    </g>
</svg>