<?xml version="1.0" encoding="UTF-8"?>
<svg width="10px" height="10px" viewBox="0 0 10 10" version="1.1" xmlns="http://www.w3.org/2000/svg" xmlns:xlink="http://www.w3.org/1999/xlink">
    <title>30286A90-3D1D-492D-AA3A-AB5A122A6406</title>
    <g id="Page-1" stroke="none" stroke-width="1" fill="none" fill-rule="evenodd">
        <g id="2.2-Home---notifications" transform="translate(-451.000000, -966.000000)" fill="#FFFFFE">
            <g id="Group-2" transform="translate(437.000000, 941.000000)">
                <path d="M18.1476973,31.7720139 L16.0945412,33.8319529 C15.8626148,34.0628814 15.5545567,34.1918047 15.2270065,34.1918047 C14.5488831,34.1918047 14,33.6421099 14,32.9606582 C14,32.6319747 14.1275454,32.3231255 14.3591893,32.0907803 L16.4127691,30.0308413 C16.6523228,29.7914124 16.6523228,29.4018091 16.4127691,29.1609634 L14.3591893,27.1010244 C14.1276866,26.8686792 14,26.55983 14,26.2311465 C14,25.5511116 14.5484593,25 15.2270065,25 C15.5545567,25 15.8626148,25.1289233 16.0945412,25.3612685 L18.1476973,27.4212075 C18.3873923,27.6606364 18.7759608,27.6606364 19.0155145,27.4212075 L21.0686706,25.3612685 C21.3007383,25.1289233 21.6086552,25 21.9363466,25 C22.6143288,25 23.1633531,25.5511116 23.1633531,26.2311465 C23.1633531,26.55983 23.0356665,26.8686792 22.8041638,27.1010244 L20.750584,29.1609634 C20.510889,29.4018091 20.510889,29.7914124 20.750584,30.0308413 L22.8041638,32.0907803 C23.0356665,32.3231255 23.1633531,32.6319747 23.1633531,32.9606582 C23.1633531,33.6406931 22.6147525,34.1918047 21.9363466,34.1918047 C21.6086552,34.1918047 21.3007383,34.0628814 21.0686706,33.8319529 L19.0155145,31.7720139 C18.7759608,31.5311683 18.3873923,31.5311683 18.1476973,31.7720139" id="Fill-185-Copy"></path>
            </g>
        </g>
    </g>
</svg>