<?xml version="1.0" encoding="UTF-8"?>
<svg width="12px" height="12px" viewBox="0 0 12 12" version="1.1" xmlns="http://www.w3.org/2000/svg" xmlns:xlink="http://www.w3.org/1999/xlink">
    <title>5406678D-493B-49CF-A8BF-5965EF16C215</title>
    <g id="Page-1" stroke="none" stroke-width="1" fill="none" fill-rule="evenodd">
        <g id="2.2-Home---notifications" transform="translate(-971.000000, -965.000000)" fill="#9D9E9A">
            <g id="Group-2" transform="translate(437.000000, 941.000000)">
                <path d="M545.302946,25.4495938 C545.421883,25.3305656 545.487016,25.1732782 545.487016,25.0046549 C545.487016,24.8360316 545.421883,24.6773273 545.302946,24.5597161 L544.927727,24.1827934 C544.808789,24.0651821 544.651622,24 544.483127,24 C544.314491,24 544.157324,24.0651821 544.038528,24.1827934 L539.744039,28.4805626 L535.448134,24.1827934 C535.330612,24.0651821 535.173445,24 535.00495,24 C534.836456,24 534.679147,24.0651821 534.560351,24.1827934 L534.183716,24.5597161 C533.938761,24.8048575 533.938761,25.2044523 534.183716,25.4495938 L538.478205,29.747363 L534.183716,34.0451323 C534.066194,34.1641605 534.001062,34.3214478 534.001062,34.4900711 C534.001062,34.6586944 534.066194,34.8159817 534.183716,34.93501 L534.560351,35.3105157 C534.677872,35.4295439 534.836456,35.494726 535.00495,35.494726 C535.173445,35.494726 535.330612,35.4295439 535.448134,35.3105157 L539.744039,31.0127464 L544.038528,35.3105157 C544.157324,35.4295439 544.314491,35.494726 544.483127,35.494726 C544.651622,35.494726 544.808789,35.4295439 544.927727,35.3105157 L545.302946,34.93501 C545.421883,34.8159817 545.487016,34.6586944 545.487016,34.4900711 C545.487016,34.3214478 545.421883,34.1641605 545.302946,34.0451323 L541.008457,29.747363 L545.302946,25.4495938 Z" id="Fill-6-Copy"></path>
            </g>
        </g>
    </g>
</svg>