<?xml version="1.0" encoding="UTF-8"?>
<svg width="30px" height="27px" viewBox="0 0 30 27" version="1.1" xmlns="http://www.w3.org/2000/svg" xmlns:xlink="http://www.w3.org/1999/xlink">
    <title>66F4A88F-C5D6-4A07-9A54-13BD16BE4D1D</title>
    <defs>
        <filter id="filter-1">
            <feColorMatrix in="SourceGraphic" type="matrix" values="0 0 0 0 1.000000 0 0 0 0 1.000000 0 0 0 0 1.000000 0 0 0 1.000000 0"></feColorMatrix>
        </filter>
    </defs>
    <g id="Page-1" stroke="none" stroke-width="1" fill="none" fill-rule="evenodd">
        <g id="2.-Home" transform="translate(-53.000000, -363.000000)">
            <g id="Navigation" transform="translate(24.000000, 24.000000)">
                <g id="house" transform="translate(18.000000, 328.000000)" filter="url(#filter-1)">
                    <g transform="translate(11.000000, 11.000000)">
                        <path d="M13.9008726,0.412373085 C14.4841987,-0.137457695 15.4685617,-0.137457695 16.0987622,0.412373085 L29.4319318,12.0778271 C30.1246316,12.6871877 30.1923391,13.7392462 29.5881799,14.4319382 C28.9788124,15.1246302 27.9267419,15.1923369 27.2340421,14.5881845 L14.9998174,3.88114543 L2.76403022,14.5881845 C2.0713304,15.1923369 1.01873916,15.1246302 0.412340364,14.4319382 C-0.193745941,13.7392462 -0.12353847,12.6871877 0.569265519,12.0778271 L13.9008726,0.412373085 Z" id="Path" fill="#000000" fill-rule="nonzero"></path>
                        <path d="M14.9860752,4 L26.9785721,14.308677 L27,24.8917893 C27.0053291,26.053671 26.0474277,27 24.859416,27 L20.5515356,27 C19.3688753,27 18.4109739,26.0589284 18.4109739,24.8970467 L18.4109739,20.2547774 C18.4109739,19.3242205 17.6457231,18.5724147 16.6985245,18.5724147 L13.2736258,18.5724147 C12.3264273,18.5724147 11.5611765,19.3242205 11.5611765,20.2547774 L11.5611765,24.8970467 C11.5611765,26.0589284 10.6032751,27 9.42061479,27 L5.14484282,27 C3.96164734,27 3.00374598,26.0589284 3.00321084,24.8970467 L3,14.3034196 L14.9860752,4 Z" id="Path" fill="#000000" fill-rule="nonzero" opacity="0.4"></path>
                    </g>
                </g>
            </g>
        </g>
    </g>
</svg>