<?xml version="1.0" encoding="UTF-8"?>
<svg width="4px" height="14px" viewBox="0 0 4 14" version="1.1" xmlns="http://www.w3.org/2000/svg" xmlns:xlink="http://www.w3.org/1999/xlink">
    <title>D7C5215F-23B1-444C-96B4-D105252EE15B</title>
    <g id="Page-1" stroke="none" stroke-width="1" fill="none" fill-rule="evenodd">
        <g id="2.2-Home---notifications" transform="translate(-454.000000, -810.000000)" fill="#FFFFFE">
            <g id="Group-2-Copy-2" transform="translate(437.000000, 787.000000)">
                <g id="Group-4" transform="translate(17.621532, 23.192677)">
                    <path d="M2.83212938,11.3169137 C2.83212938,12.0607018 2.22505282,12.662816 1.48449852,12.662816 C0.743661721,12.662816 0.136867656,12.0607018 0.136867656,11.3169137 L0.136867656,5.42752833 C0.136867656,4.68374019 0.743661721,4.08162598 1.48449852,4.08162598 C2.22505282,4.08162598 2.83212938,4.68374019 2.83212938,5.42752833 L2.83212938,11.3169137" id="Fill-180-Copy"></path>
                    <path d="M1.48068487,2.96948561 C0.662868843,2.96948561 -4.07673895e-13,2.30361813 -4.07673895e-13,1.48474281 C-4.07673895e-13,0.663034002 0.662868843,9.23705556e-14 1.48068487,9.23705556e-14 C2.29807715,9.23705556e-14 2.96136973,0.663034002 2.96136973,1.48474281 C2.96136973,2.30361813 2.29807715,2.96948561 1.48068487,2.96948561" id="Fill-181-Copy"></path>
                </g>
            </g>
        </g>
    </g>
</svg>