<?xml version="1.0" encoding="UTF-8"?>
<svg width="302px" height="83px" viewBox="0 0 302 83" version="1.1" xmlns="http://www.w3.org/2000/svg" xmlns:xlink="http://www.w3.org/1999/xlink" >
    <title>logo</title>
    <defs>
        <linearGradient x1="6.86138048%" y1="46.9444594%" x2="104.401673%" y2="54.479394%" id="linearGradient-1">
            <stop stop-color="#506EDF" offset="0%"></stop>
            <stop stop-color="#45CAB3" offset="100%"></stop>
        </linearGradient>
    </defs>
    <g id="Page-1" stroke="none" stroke-width="1" fill="none" fill-rule="evenodd" opacity="0.919729435">
        <g id="1.-Login" transform="translate(-570.000000, -246.000000)" fill="url(#linearGradient-1)" fill-rule="nonzero">
            <g id="Group" transform="translate(520.000000, 246.000000)">
                <g transform="translate(50.360000, 0.000000)" id="logo">
                    <path d="M288.844639,58.0752 C292.382719,58.0752 292.382719,58.0752 295.172359,59.64012 C297.961999,61.20504 297.961999,61.20504 299.526919,64.04004 C301.091839,66.87504 301.091839,66.87504 301.091839,70.59456 C301.091839,71.18424 301.091839,71.18424 301.001119,72.27288 L301.001119,72.27288 L281.995279,72.27288 L282.059552,72.5838864 C282.618312,75.0411741 282.618312,75.0411741 284.603479,76.51404 C286.712719,78.07896 286.712719,78.07896 289.842559,78.07896 C293.834239,78.07896 293.834239,78.07896 296.419759,75.44808 L296.419759,75.44808 L299.458879,78.9408 L299.221202,79.21458 C297.647719,80.96256 297.647719,80.96256 295.331119,81.8892 C292.836319,82.88712 292.836319,82.88712 289.706479,82.88712 C285.714799,82.88712 285.714799,82.88712 282.675679,81.29952 C279.636559,79.71192 279.636559,79.71192 277.980919,76.87692 C276.325279,74.04192 276.325279,74.04192 276.325279,70.45848 C276.325279,66.9204 276.325279,66.9204 277.935559,64.0854 C279.545839,61.2504 279.545839,61.2504 282.403519,59.6628 C285.261199,58.0752 285.261199,58.0752 288.844639,58.0752 Z M231.186479,58.34736 L231.186479,71.41104 L231.191029,71.76881 C231.268379,74.76642 231.268379,74.76642 232.660679,76.28724 C234.134879,77.89752 234.134879,77.89752 236.856479,77.89752 C239.895599,77.89752 239.895599,77.89752 241.687319,76.01508 C243.479039,74.13264 243.479039,74.13264 243.479039,70.59456 L243.479039,70.59456 L243.479039,58.34736 L249.149039,58.34736 L249.149039,82.5696 L243.751199,82.5696 L243.751199,79.48512 L243.519674,79.7520825 C242.220299,81.19179 242.220299,81.19179 240.349199,82.0026 C238.307999,82.88712 238.307999,82.88712 235.949279,82.88712 C231.095759,82.88712 231.095759,82.88712 228.306119,80.1882 C225.516479,77.48928 225.516479,77.48928 225.516479,72.18216 L225.516479,72.18216 L225.516479,58.34736 L231.186479,58.34736 Z M213.94688,48.91248 L213.94688,82.5696 L208.50368,82.5696 L208.50368,79.43976 L208.264752,79.721055 C206.92553,81.23526 206.92553,81.23526 205.03364,82.02528 C202.96976,82.88712 202.96976,82.88712 200.47496,82.88712 C196.98224,82.88712 196.98224,82.88712 194.1926,81.34488 C191.40296,79.80264 191.40296,79.80264 189.81536,76.96764 C188.22776,74.13264 188.22776,74.13264 188.22776,70.45848 C188.22776,66.78432 188.22776,66.78432 189.81536,63.972 C191.40296,61.15968 191.40296,61.15968 194.1926,59.61744 C196.98224,58.0752 196.98224,58.0752 200.47496,58.0752 C202.87904,58.0752 202.87904,58.0752 204.87488,58.89168 C206.87072,59.70816 206.87072,59.70816 208.27688,61.34112 L208.27688,61.34112 L208.27688,48.91248 L213.94688,48.91248 Z M168.2212,58.0752 C171.75928,58.0752 171.75928,58.0752 174.54892,59.64012 C177.33856,61.20504 177.33856,61.20504 178.90348,64.04004 C180.4684,66.87504 180.4684,66.87504 180.4684,70.59456 C180.4684,71.18424 180.4684,71.18424 180.37768,72.27288 L180.37768,72.27288 L161.37184,72.27288 L161.436113,72.5838864 C161.994873,75.0411741 161.994873,75.0411741 163.98004,76.51404 C166.08928,78.07896 166.08928,78.07896 169.21912,78.07896 C173.2108,78.07896 173.2108,78.07896 175.79632,75.44808 L175.79632,75.44808 L178.83544,78.9408 L178.597763,79.21458 C177.02428,80.96256 177.02428,80.96256 174.70768,81.8892 C172.21288,82.88712 172.21288,82.88712 169.08304,82.88712 C165.09136,82.88712 165.09136,82.88712 162.05224,81.29952 C159.01312,79.71192 159.01312,79.71192 157.35748,76.87692 C155.70184,74.04192 155.70184,74.04192 155.70184,70.45848 C155.70184,66.9204 155.70184,66.9204 157.31212,64.0854 C158.9224,61.2504 158.9224,61.2504 161.78008,59.6628 C164.63776,58.0752 164.63776,58.0752 168.2212,58.0752 Z M102.76112,58.0752 C106.34456,58.0752 106.34456,58.0752 109.04348,59.52672 C111.7424,60.97824 111.7424,60.97824 113.1032,63.69984 L113.1032,63.69984 L108.74864,66.24 L108.571137,65.9661075 C107.57495,64.49175 107.57495,64.49175 106.14044,63.72252 C104.57552,62.88336 104.57552,62.88336 102.71576,62.88336 C99.5405599,62.88336 99.5405599,62.88336 97.4539999,64.94724 C95.3674399,67.01112 95.3674399,67.01112 95.3674399,70.45848 C95.3674399,73.90584 95.3674399,73.90584 97.4313199,75.96972 C99.4951999,78.0336 99.4951999,78.0336 102.71576,78.0336 C104.57552,78.0336 104.57552,78.0336 106.14044,77.19444 C107.70536,76.35528 107.70536,76.35528 108.74864,74.67696 L108.74864,74.67696 L113.1032,77.21712 L112.92238,77.5524473 C111.528357,80.0308575 111.528357,80.0308575 108.99812,81.41292 C106.2992,82.88712 106.2992,82.88712 102.76112,82.88712 C98.9962399,82.88712 98.9962399,82.88712 96.0024799,81.29952 C93.0087199,79.71192 93.0087199,79.71192 91.3303999,76.87692 C89.6520799,74.04192 89.6520799,74.04192 89.6520799,70.45848 C89.6520799,66.87504 89.6520799,66.87504 91.3303999,64.06272 C93.0087199,61.2504 93.0087199,61.2504 95.9797999,59.6628 C98.9508799,58.0752 98.9508799,58.0752 102.76112,58.0752 Z M72.59392,58.0752 C75.08872,58.0752 75.08872,58.0752 77.58352,58.6422 C80.07832,59.2092 80.07832,59.2092 81.66592,60.16176 L81.66592,60.16176 L79.48864,64.47096 L79.1230918,64.2637794 C76.17736,62.65656 76.17736,62.65656 72.54856,62.65656 C70.05376,62.65656 70.05376,62.65656 68.761,63.405 C67.46824,64.15344 67.46824,64.15344 67.46824,65.37816 C67.46824,66.73896 67.46824,66.73896 68.85172,67.30596 C70.2352,67.87296 70.2352,67.87296 73.13824,68.37192 C76.04128,68.82552 76.04128,68.82552 77.90104,69.4152 C79.7608,70.00488 79.7608,70.00488 81.09892,71.41104 C82.43704,72.8172 82.43704,72.8172 82.43704,75.40272 C82.43704,78.80472 82.43704,78.80472 79.48864,80.84592 C76.54024,82.88712 76.54024,82.88712 71.45992,82.88712 C68.51152,82.88712 68.51152,82.88712 65.6992,82.116 C62.88688,81.34488 62.88688,81.34488 61.20856,80.16552 L61.20856,80.16552 L63.38584,75.85632 L63.7190092,76.0697388 C65.247868,77.010732 65.247868,77.010732 67.30948,77.60268 C69.60016,78.2604 69.60016,78.2604 71.8228,78.2604 C76.90312,78.2604 76.90312,78.2604 76.90312,75.58416 C76.90312,74.31408 76.90312,74.31408 75.61036,73.81512 C74.3176,73.31616 74.3176,73.31616 71.45992,72.86256 C68.46616,72.40896 68.46616,72.40896 66.58372,71.81928 C64.70128,71.2296 64.70128,71.2296 63.3178,69.7554 C61.93432,68.2812 61.93432,68.2812 61.93432,65.65032 C61.93432,62.20296 61.93432,62.20296 64.81468,60.13908 C67.69504,58.0752 67.69504,58.0752 72.59392,58.0752 Z M266.570079,48.91248 L266.570079,82.5696 L260.900079,82.5696 L260.900079,48.91248 L266.570079,48.91248 Z M135.50768,18.6256 C139.04576,18.6256 139.04576,18.6256 141.8354,20.16784 C144.62504,21.71008 144.62504,21.71008 146.21264,24.5224 C147.80024,27.33472 147.80024,27.33472 147.80024,31.00888 C147.80024,34.68304 147.80024,34.68304 146.21264,37.51804 C144.62504,40.35304 144.62504,40.35304 141.8354,41.89528 C139.04576,43.43752 139.04576,43.43752 135.50768,43.43752 C130.79024,43.43752 130.79024,43.43752 127.9656,40.40904 L127.75112,40.1716 L127.751,48.912 L127.75728,48.91248 L127.75728,61.15968 L128.018381,60.8933306 C129.351065,59.5906364 129.351065,59.5906364 131.22732,58.869 C133.2912,58.0752 133.2912,58.0752 135.83136,58.0752 C140.41272,58.0752 140.41272,58.0752 143.17968,60.75144 C145.94664,63.42768 145.94664,63.42768 145.94664,68.68944 L145.94664,68.68944 L145.94664,82.5696 L140.27664,82.5696 L140.27664,69.4152 L140.27202,69.06723 C140.19348,66.15054 140.19348,66.15054 138.77976,64.62972 C137.28288,63.01944 137.28288,63.01944 134.51592,63.01944 C131.38608,63.01944 131.38608,63.01944 129.57168,64.90188 C127.75728,66.78432 127.75728,66.78432 127.75728,70.3224 L127.75728,70.3224 L127.75728,82.5696 L122.08728,82.5696 L122.087,51.919 L122.08112,51.91984 L122.08112,18.89776 L127.47896,18.89776 L127.47896,22.07296 L127.717887,21.791665 C129.05711,20.27746 129.05711,20.27746 130.949,19.48744 C133.01288,18.6256 133.01288,18.6256 135.50768,18.6256 Z M201.15536,62.88336 C199.11416,62.88336 199.11416,62.88336 197.4812,63.81324 C195.84824,64.74312 195.84824,64.74312 194.89568,66.4668 C193.94312,68.19048 193.94312,68.19048 193.94312,70.45848 C193.94312,72.72648 193.94312,72.72648 194.89568,74.45016 C195.84824,76.17384 195.84824,76.17384 197.4812,77.10372 C199.11416,78.0336 199.11416,78.0336 201.15536,78.0336 C203.19656,78.0336 203.19656,78.0336 204.82952,77.10372 C206.46248,76.17384 206.46248,76.17384 207.41504,74.45016 C208.3676,72.72648 208.3676,72.72648 208.3676,70.45848 C208.3676,68.19048 208.3676,68.19048 207.41504,66.4668 C206.46248,64.74312 206.46248,64.74312 204.82952,63.81324 C203.19656,62.88336 203.19656,62.88336 201.15536,62.88336 Z M288.844639,62.6112 C286.123039,62.6112 286.123039,62.6112 284.240599,64.22148 C282.358159,65.83176 282.358159,65.83176 281.949919,68.508 L281.949919,68.508 L295.693999,68.508 C295.331119,65.87712 295.331119,65.87712 293.471359,64.24416 C291.611599,62.6112 291.611599,62.6112 288.844639,62.6112 Z M168.2212,62.6112 C165.4996,62.6112 165.4996,62.6112 163.61716,64.22148 C161.73472,65.83176 161.73472,65.83176 161.32648,68.508 L161.32648,68.508 L175.07056,68.508 C174.70768,65.87712 174.70768,65.87712 172.84792,64.24416 C170.98816,62.6112 170.98816,62.6112 168.2212,62.6112 Z M28.56,3.19744231e-14 C44.3349375,3.19744231e-14 57.12,12.7850625 57.12,28.56 C57.12,44.3349375 44.3349375,57.12 28.56,57.12 C12.7850625,57.12 5.68434189e-14,44.3349375 5.68434189e-14,28.56 C5.68434189e-14,12.7850625 12.7850625,3.19744231e-14 28.56,3.19744231e-14 Z M207.729199,18.6256 C213.081679,18.6256 213.081679,18.6256 215.916679,21.18844 C218.646679,23.65636 218.646679,23.65636 218.747791,28.5428578 L218.751679,28.92232 L218.751679,43.12 L213.399199,43.12 L213.399199,40.1716 L213.233461,40.4114175 C212.207627,41.8237508 212.207627,41.8237508 210.428119,42.59836 C208.500319,43.43752 208.500319,43.43752 205.778719,43.43752 C203.057119,43.43752 203.057119,43.43752 201.015919,42.50764 C198.974719,41.57776 198.974719,41.57776 197.863399,39.92212 C196.752079,38.26648 196.752079,38.26648 196.752079,36.17992 C196.752079,32.914 196.752079,32.914 199.178839,30.94084 C201.508529,29.0466064 201.508529,29.0466064 206.409151,28.9708371 L206.821999,28.96768 L213.081679,28.96768 L213.081679,28.6048 L213.076421,28.3100385 C212.992294,25.9845929 212.992294,25.9845929 211.562119,24.70384 C210.042559,23.34304 210.042559,23.34304 207.048799,23.34304 C205.007599,23.34304 205.007599,23.34304 203.034439,23.97808 C201.258595,24.549616 201.258595,24.549616 199.978763,25.5253096 L199.700479,25.74712 L197.477839,21.61936 L197.800714,21.382165 C199.605979,20.10358 199.605979,20.10358 202.059199,19.39672 C204.735439,18.6256 204.735439,18.6256 207.729199,18.6256 Z M181.37224,13.54528 L181.37224,19.0792 L187.85872,19.0792 L187.85872,23.6152 L181.37224,23.6152 L181.37224,35.13664 L181.377339,35.4038346 C181.438535,36.9772092 181.438535,36.9772092 182.23408,37.83556 C183.09592,38.76544 183.09592,38.76544 184.72888,38.76544 C186.487452,38.76544 186.487452,38.76544 187.704925,37.9151413 L187.90408,37.76752 L189.49168,41.80456 L189.2646,41.98096 C188.335,42.6664 188.335,42.6664 187.06492,43.02928 C185.63608,43.43752 185.63608,43.43752 184.04848,43.43752 C180.0568,43.43752 180.0568,43.43752 177.87952,41.35096 C175.801207,39.3592436 175.801207,39.3592436 175.706738,35.6316638 L175.70224,35.27272 L175.70224,23.6152 L171.71056,23.6152 L171.71056,19.0792 L175.70224,19.0792 L175.70224,13.54528 L181.37224,13.54528 Z M103.02712,18.6256 C105.52192,18.6256 105.52192,18.6256 108.01672,19.1926 C110.30362,19.71235 110.30362,19.71235 111.82822,20.5560775 L112.09912,20.71216 L109.92184,25.02136 L109.556292,24.8141794 C106.61056,23.20696 106.61056,23.20696 102.98176,23.20696 C100.48696,23.20696 100.48696,23.20696 99.1941999,23.9554 C97.9014399,24.70384 97.9014399,24.70384 97.9014399,25.92856 C97.9014399,27.28936 97.9014399,27.28936 99.2849199,27.85636 C100.6684,28.42336 100.6684,28.42336 103.57144,28.92232 C106.47448,29.37592 106.47448,29.37592 108.33424,29.9656 C110.194,30.55528 110.194,30.55528 111.53212,31.96144 C112.87024,33.3676 112.87024,33.3676 112.87024,35.95312 C112.87024,39.35512 112.87024,39.35512 109.92184,41.39632 C106.97344,43.43752 106.97344,43.43752 101.89312,43.43752 C98.9447199,43.43752 98.9447199,43.43752 96.1323999,42.6664 C93.5364122,41.9545969 93.5364122,41.9545969 91.906673,40.8949444 L91.6417599,40.71592 L93.8190399,36.40672 L94.1522091,36.6201388 C95.6810679,37.561132 95.6810679,37.561132 97.7426799,38.15308 C100.03336,38.8108 100.03336,38.8108 102.256,38.8108 C107.33632,38.8108 107.33632,38.8108 107.33632,36.13456 C107.33632,34.86448 107.33632,34.86448 106.04356,34.36552 C104.7508,33.86656 104.7508,33.86656 101.89312,33.41296 C98.8993599,32.95936 98.8993599,32.95936 97.0169199,32.36968 C95.1344799,31.78 95.1344799,31.78 93.7509999,30.3058 C92.3675199,28.8316 92.3675199,28.8316 92.3675199,26.20072 C92.3675199,22.75336 92.3675199,22.75336 95.2478799,20.68948 C98.1282399,18.6256 98.1282399,18.6256 103.02712,18.6256 Z M71.72592,18.6256 C75.44544,18.6256 75.44544,18.6256 78.39384,20.2132 C81.34224,21.8008 81.34224,21.8008 82.99788,24.61312 C84.65352,27.42544 84.65352,27.42544 84.65352,31.00888 C84.65352,34.59232 84.65352,34.59232 82.99788,37.42732 C81.34224,40.26232 81.34224,40.26232 78.39384,41.84992 C75.44544,43.43752 75.44544,43.43752 71.72592,43.43752 C68.05176,43.43752 68.05176,43.43752 65.10336,41.84992 C62.15496,40.26232 62.15496,40.26232 60.49932,37.42732 C58.84368,34.59232 58.84368,34.59232 58.84368,31.00888 C58.84368,27.42544 58.84368,27.42544 60.49932,24.61312 C62.15496,21.8008 62.15496,21.8008 65.10336,20.2132 C68.05176,18.6256 68.05176,18.6256 71.72592,18.6256 Z M235.991279,9.46288 L235.991279,43.12 L230.321279,43.12 L230.321279,9.46288 L235.991279,9.46288 Z M163.18008,18.89776 L163.18008,43.12 L157.51008,43.12 L157.51008,18.89776 L163.18008,18.89776 Z M38.3775,14.28 C36.9615144,14.28 35.7930788,15.3939747 35.7052938,16.7888233 L35.7,16.9575 L35.7,25.8825 L21.42,25.8825 L21.42,16.9575 C21.42,15.484875 20.215125,14.28 18.7425,14.28 C17.3265144,14.28 16.1580788,15.3939747 16.0702938,16.7888233 L16.065,16.9575 L16.065,40.1625 C16.065,41.6462813 17.2587188,42.84 18.7425,42.84 C20.1692127,42.84 21.3277464,41.7363399 21.4147538,40.3323669 L21.42,40.1625 L21.42,31.2375 L35.7,31.2375 L35.7,40.1625 C35.7,41.6462813 36.8992969,42.84 38.3775,42.84 C39.7988492,42.84 40.9623338,41.7311826 41.04973,40.3317718 L41.055,40.1625 L41.055,16.9575 C41.055,15.4792969 39.850125,14.28 38.3775,14.28 Z M213.081679,32.73256 L207.230239,32.73256 L206.937836,32.7355174 C202.331359,32.8301527 202.331359,32.8301527 202.331359,35.95312 C202.331359,37.49536 202.331359,37.49536 203.556079,38.40256 C204.780799,39.30976 204.780799,39.30976 206.958079,39.30976 C209.089999,39.30976 209.089999,39.30976 210.745639,38.33452 C212.283019,37.42894 212.283019,37.42894 212.979504,35.7997986 L213.081679,35.54488 L213.081679,32.73256 Z M134.87264,23.43376 C132.83144,23.43376 132.83144,23.43376 131.19848,24.36364 C129.56552,25.29352 129.56552,25.29352 128.61296,27.0172 C127.6604,28.74088 127.6604,28.74088 127.6604,31.00888 C127.6604,33.27688 127.6604,33.27688 128.61296,35.00056 C129.56552,36.72424 129.56552,36.72424 131.19848,37.65412 C132.83144,38.584 132.83144,38.584 134.87264,38.584 C138.00248,38.584 138.00248,38.584 140.021,36.49744 C142.03952,34.41088 142.03952,34.41088 142.03952,31.00888 C142.03952,27.60688 142.03952,27.60688 140.021,25.52032 C138.00248,23.43376 138.00248,23.43376 134.87264,23.43376 Z M71.72592,23.43376 C68.59608,23.43376 68.59608,23.43376 66.57756,25.52032 C64.55904,27.60688 64.55904,27.60688 64.55904,31.00888 C64.55904,34.41088 64.55904,34.41088 66.57756,36.49744 C68.59608,38.584 68.59608,38.584 71.72592,38.584 C74.85576,38.584 74.85576,38.584 76.89696,36.49744 C78.93816,34.41088 78.93816,34.41088 78.93816,31.00888 C78.93816,27.60688 78.93816,27.60688 76.89696,25.52032 C74.85576,23.43376 74.85576,23.43376 71.72592,23.43376 Z M160.36776,8.10208 C161.91,8.10208 161.91,8.10208 162.95328,9.03196 C163.99656,9.96184 163.99656,9.96184 163.99656,11.368 C163.99656,12.86488 163.99656,12.86488 162.97596,13.88548 C161.95536,14.90608 161.95536,14.90608 160.36776,14.90608 C158.82552,14.90608 158.82552,14.90608 157.78224,13.93084 C156.73896,12.9556 156.73896,12.9556 156.73896,11.50408 C156.73896,10.05256 156.73896,10.05256 157.78224,9.07732 C158.82552,8.10208 158.82552,8.10208 160.36776,8.10208 Z" id="Combined-Shape"></path>
                </g>
            </g>
        </g>
    </g>
</svg>