<?xml version="1.0" encoding="UTF-8"?>
<svg width="54px" height="54px" viewBox="0 0 54 54" version="1.1" xmlns="http://www.w3.org/2000/svg" xmlns:xlink="http://www.w3.org/1999/xlink">
    <title>D1A8FD91-9F29-4E97-963F-5E908DC41879</title>
    <defs>
        <circle id="path-1" cx="19" cy="19" r="19"></circle>
        <filter x="-31.6%" y="-31.6%" width="163.2%" height="163.2%" filterUnits="objectBoundingBox" id="filter-3">
            <feOffset dx="0" dy="0" in="SourceAlpha" result="shadowOffsetOuter1"></feOffset>
            <feGaussianBlur stdDeviation="4" in="shadowOffsetOuter1" result="shadowBlurOuter1"></feGaussianBlur>
            <feComposite in="shadowBlurOuter1" in2="SourceAlpha" operator="out" result="shadowBlurOuter1"></feComposite>
            <feColorMatrix values="0 0 0 0 0.215318173   0 0 0 0 0.72553283   0 0 0 0 0.776371062  0 0 0 1 0" type="matrix" in="shadowBlurOuter1"></feColorMatrix>
        </filter>
        <filter color-interpolation-filters="auto" id="filter-4">
            <feColorMatrix in="SourceGraphic" type="matrix" values="0 0 0 0 0.215318 0 0 0 0 0.725533 0 0 0 0 0.776371 0 0 0 1.000000 0"></feColorMatrix>
        </filter>
    </defs>
    <g id="Page-1" stroke="none" stroke-width="1" fill="none" fill-rule="evenodd">
        <g id="3.-Schedule" transform="translate(-1219.000000, -286.000000)">
            <g id="Group-2-Copy-2" transform="translate(222.000000, 277.000000)">
                <g id="Group-7-Copy" transform="translate(1005.000000, 17.000000)">
                    <mask id="mask-2" fill="white">
                        <use xlink:href="#path-1"></use>
                    </mask>
                    <g id="Oval">
                        <use fill="black" fill-opacity="1" filter="url(#filter-3)" xlink:href="#path-1"></use>
                        <use fill-opacity="0.25" fill="#37B9C6" fill-rule="evenodd" xlink:href="#path-1"></use>
                    </g>
                    <g filter="url(#filter-4)" id="user-nurse-hair-long">
                        <g mask="url(#mask-2)">
                            <g transform="translate(2.412698, 0.000000)" fill="#000000" fill-rule="nonzero" id="Shape">
                                <path d="M7.10884354,9.32796781 L7.10884354,5.0771897 C7.10884354,4.08113525 7.7234623,3.18961425 8.64909297,2.84017386 L15.7579365,0.152096171 C16.2910998,-0.0506987236 16.816858,-0.0506987236 17.4166667,0.152096171 L24.5255102,2.84017386 C25.4511409,3.18961425 26.0657596,4.08113525 26.0657596,5.0771897 L26.0657596,9.32796781 L26.0435445,9.32796781 C26.0583546,9.58930143 26.0657596,9.79090166 26.0657596,9.92530181 L26.0657596,12.5386381 C26.0657596,15.137041 27.0654408,17.5711771 28.8426516,19.3631791 L29.1314484,19.6543794 C29.4424603,19.9679798 29.6201814,20.4010469 29.6201814,20.8490474 C29.6201814,21.7823818 28.8722718,22.4693159 27.9466412,22.4693159 L5.23018353,22.4693159 C4.30455286,22.4693159 3.55442177,21.7823818 3.55442177,20.8490474 C3.55442177,20.4010469 3.73066185,19.9679798 4.04537628,19.6543794 L4.33269204,19.3631791 C6.10990292,17.5711771 7.10884354,15.137041 7.10884354,12.5386381 L7.10884354,9.92530181 C7.10884354,9.79090166 7.11550808,9.58930143 7.12957766,9.32796781 L7.10884354,9.32796781 Z M18.1867914,9.95516851 C17.1723002,11.7621039 15.2395833,12.9119718 13.0328798,12.9119718 L10.6632653,12.9119718 C10.6632653,16.2794423 13.3142715,18.8853119 16.5873016,18.8853119 C19.8603316,18.8853119 22.5113379,16.2794423 22.5113379,12.9119718 L22.5113379,11.7173038 L21.9189342,11.7173038 C20.4008999,11.7173038 19.0531817,11.0677031 18.1867914,9.95516851 Z M15.7949617,3.81980162 L14.8100907,3.81980162 C14.4842687,3.81980162 14.2176871,4.08710859 14.2176871,4.41713563 L14.2176871,4.81585607 C14.2176871,5.14513644 14.4842687,5.41319008 14.8100907,5.41319008 L15.7949617,5.41319008 L15.7949617,6.34129779 C15.7949617,6.7385249 16.0615434,6.93863179 16.3873654,6.93863179 L16.7872378,6.93863179 C17.1130598,6.93863179 17.3796414,6.7385249 17.3796414,6.34129779 L17.3796414,5.41319008 L18.3645125,5.41319008 C18.6903345,5.41319008 18.9569161,5.14513644 18.9569161,4.81585607 L18.9569161,4.41713563 C18.9569161,4.08710859 18.6903345,3.81980162 18.3645125,3.81980162 L17.3796414,3.81980162 L17.3796414,2.75729376 C17.3796414,2.4944668 17.1130598,2.15995976 16.7872378,2.15995976 L16.3873654,2.15995976 C16.0615434,2.15995976 15.7949617,2.4944668 15.7949617,2.75729376 L15.7949617,3.81980162 Z M10.4633291,24.9333187 L16.5873016,31.429326 L22.7112741,24.9333187 C28.5316397,25.1946523 33.1746032,30.0330577 33.1746032,35.9615977 C33.1746032,37.126399 32.2415675,38 31.0863804,38 L2.08526077,38 C0.933776219,38 0,37.126399 0,35.9615977 C0,30.0330577 4.64222293,25.1946523 10.4633291,24.9333187 L10.4633291,24.9333187 Z"></path>
                            </g>
                        </g>
                    </g>
                </g>
            </g>
        </g>
    </g>
</svg>