<?xml version="1.0" encoding="UTF-8"?>
<svg width="79px" height="79px" viewBox="0 0 79 79" version="1.1" xmlns="http://www.w3.org/2000/svg" xmlns:xlink="http://www.w3.org/1999/xlink">
    <title>E5D40D54-2F65-4A33-A9AB-FAAE1BCBF3DC</title>
    <defs>
        <circle id="path-1" cx="31.5" cy="31.5" r="31.5"></circle>
        <filter x="-19.0%" y="-19.0%" width="138.1%" height="138.1%" filterUnits="objectBoundingBox" id="filter-3">
            <feOffset dx="0" dy="0" in="SourceAlpha" result="shadowOffsetOuter1"></feOffset>
            <feGaussianBlur stdDeviation="4" in="shadowOffsetOuter1" result="shadowBlurOuter1"></feGaussianBlur>
            <feComposite in="shadowBlurOuter1" in2="SourceAlpha" operator="out" result="shadowBlurOuter1"></feComposite>
            <feColorMatrix values="0 0 0 0 0.215318173   0 0 0 0 0.72553283   0 0 0 0 0.776371062  0 0 0 1 0" type="matrix" in="shadowBlurOuter1"></feColorMatrix>
        </filter>
        <filter color-interpolation-filters="auto" id="filter-4">
            <feColorMatrix in="SourceGraphic" type="matrix" values="0 0 0 0 0.215318 0 0 0 0 0.725533 0 0 0 0 0.776371 0 0 0 1.000000 0"></feColorMatrix>
        </filter>
    </defs>
    <g id="Page-1" stroke="none" stroke-width="1" fill="none" fill-rule="evenodd">
        <g id="3.-Users" transform="translate(-627.000000, -113.000000)">
            <g id="Group-2" transform="translate(224.000000, 84.000000)">
                <g id="Group-8-Copy" transform="translate(375.000000, 0.000000)">
                    <g id="Group-7" transform="translate(36.000000, 37.000000)">
                        <mask id="mask-2" fill="white">
                            <use xlink:href="#path-1"></use>
                        </mask>
                        <g id="Oval">
                            <use fill="black" fill-opacity="1" filter="url(#filter-3)" xlink:href="#path-1"></use>
                            <use fill-opacity="0.25" fill="#37B9C6" fill-rule="evenodd" xlink:href="#path-1"></use>
                        </g>
                        <g filter="url(#filter-4)" id="user-nurse-hair-long">
                            <g mask="url(#mask-2)">
                                <g transform="translate(4.000000, 0.000000)" fill="#000000" fill-rule="nonzero" id="Shape">
                                    <path d="M11.7857143,15.4647887 L11.7857143,8.41744608 C11.7857143,6.76609265 12.8046875,5.28804467 14.3392857,4.70870929 L26.125,0.252159441 C27.0089286,-0.084053147 27.8805804,-0.084053147 28.875,0.252159441 L40.6607143,4.70870929 C42.1953125,5.28804467 43.2142857,6.76609265 43.2142857,8.41744608 L43.2142857,15.4647887 L43.1774554,15.4647887 C43.2020089,15.8980524 43.2142857,16.2322843 43.2142857,16.4551056 L43.2142857,20.7877421 C43.2142857,25.0956206 44.8716518,29.131162 47.8180804,32.1021127 L48.296875,32.5848922 C48.8125,33.1048085 49.1071429,33.8227883 49.1071429,34.565526 C49.1071429,36.1128961 47.8671875,37.2517606 46.3325893,37.2517606 L8.67109375,37.2517606 C7.13649554,37.2517606 5.89285714,36.1128961 5.89285714,34.565526 C5.89285714,33.8227883 6.18504464,33.1048085 6.70680804,32.5848922 L7.18314732,32.1021127 C10.1295759,29.131162 11.7857143,25.0956206 11.7857143,20.7877421 L11.7857143,16.4551056 C11.7857143,16.2322843 11.7967634,15.8980524 11.8200893,15.4647887 L11.7857143,15.4647887 Z M30.1517857,16.5046215 C28.4698661,19.5003301 25.265625,21.4066901 21.6071429,21.4066901 L17.6785714,21.4066901 C17.6785714,26.9896017 22.0736607,31.3098592 27.5,31.3098592 C32.9263393,31.3098592 37.3214286,26.9896017 37.3214286,21.4066901 L37.3214286,19.4260563 L36.3392857,19.4260563 C33.8225446,19.4260563 31.5881696,18.3490867 30.1517857,16.5046215 Z M26.1863839,6.33282901 L24.5535714,6.33282901 C24.0133929,6.33282901 23.5714286,6.77599582 23.5714286,7.32314591 L23.5714286,7.98418244 C23.5714286,8.53009463 24.0133929,8.97449934 24.5535714,8.97449934 L26.1863839,8.97449934 L26.1863839,10.5132042 C26.1863839,11.171765 26.6283482,11.5035211 27.1685268,11.5035211 L27.8314732,11.5035211 C28.3716518,11.5035211 28.8136161,11.171765 28.8136161,10.5132042 L28.8136161,8.97449934 L30.4464286,8.97449934 C30.9866071,8.97449934 31.4285714,8.53009463 31.4285714,7.98418244 L31.4285714,7.32314591 C31.4285714,6.77599582 30.9866071,6.33282901 30.4464286,6.33282901 L28.8136161,6.33282901 L28.8136161,4.57130282 C28.8136161,4.13556338 28.3716518,3.58098592 27.8314732,3.58098592 L27.1685268,3.58098592 C26.6283482,3.58098592 26.1863839,4.13556338 26.1863839,4.57130282 L26.1863839,6.33282901 Z M17.3470982,41.3368178 L27.5,52.1065141 L37.6529018,41.3368178 C47.3024554,41.7700814 55,49.7916483 55,59.6205436 C55,61.5516615 53.453125,63 51.5379464,63 L3.45714286,63 C1.54810268,63 0,61.5516615 0,59.6205436 C0,49.7916483 7.69631696,41.7700814 17.3470982,41.3368178 L17.3470982,41.3368178 Z"></path>
                                </g>
                            </g>
                        </g>
                    </g>
                </g>
            </g>
        </g>
    </g>
</svg>