<?xml version="1.0" encoding="UTF-8"?>
<svg width="30px" height="24px" viewBox="0 0 30 24" version="1.1" xmlns="http://www.w3.org/2000/svg" xmlns:xlink="http://www.w3.org/1999/xlink">
    <title>157638BB-D3C5-4D4D-8FE9-BFB6D4A1EE86</title>
    <defs>
        <filter id="filter-1">
            <feColorMatrix in="SourceGraphic" type="matrix" values="0 0 0 0 0.894036 0 0 0 0 0.905934 0 0 0 0 0.937143 0 0 0 1.000000 0"></feColorMatrix>
        </filter>
    </defs>
    <g id="Page-1" stroke="none" stroke-width="1" fill="none" fill-rule="evenodd">
        <g id="2.-Home" transform="translate(-53.000000, -452.000000)">
            <g id="Navigation" transform="translate(24.000000, 24.000000)">
                <g id="users" transform="translate(18.000000, 328.000000)" filter="url(#filter-1)">
                    <g transform="translate(11.000000, 100.000000)">
                        <path d="M14.9953125,14.88 C17.6864062,14.88 19.828125,12.6684 19.828125,9.94 C19.828125,7.2116 17.6465625,5 14.9953125,5 C12.3042188,5 10.1625,7.2116 10.1625,9.94 C10.1203125,12.6665 12.3046875,14.88 14.9953125,14.88 Z M17.3390625,16.4 L12.6609375,16.4 C8.98125,16.4 6,19.23575 6,22.73175 C6,23.43475 6.5953125,24 7.33125,24 L22.66875,24 C23.4046875,24 24,23.43475 24,22.73175 C24,19.23575 21.01875,16.4 17.3390625,16.4 Z" id="Shape" fill="#000000" fill-rule="nonzero"></path>
                        <path d="M6,7.36842105 C8.0709375,7.36842105 9.75,5.71881579 9.75,3.68421053 C9.75,1.64960526 8.071875,0 6,0 C3.9290625,0 2.25,1.64960526 2.25,3.68421053 C2.25,5.71881579 3.9290625,7.36842105 6,7.36842105 Z M24,7.36842105 C26.0709375,7.36842105 27.75,5.71881579 27.75,3.68421053 C27.75,1.64960526 26.071875,0 24,0 C21.9290625,0 20.25,1.64960526 20.25,3.68421053 C20.25,5.71881579 21.928125,7.36842105 24,7.36842105 Z M25.8703125,8.84210526 L22.9715625,8.84210526 C22.3715625,8.84210526 21.8053125,8.98196711 21.290625,9.22157895 C21.31875,9.46381579 21.365625,9.69868421 21.365625,9.94736842 C21.365625,11.4998026 20.7665625,12.9044079 19.81125,14 L29.1721875,14 C29.6296875,14 30,13.6131579 30,13.1388158 C30,10.7671053 28.153125,8.84210526 25.8703125,8.84210526 Z M8.6953125,9.21513158 C8.184375,8.93881579 7.621875,8.84210526 7.0265625,8.84210526 L4.12875,8.84210526 C1.84875,8.84210526 0,10.7671053 0,13.1388158 C0,13.6131579 0.369703125,14 0.8259375,14 L10.1775,14 C9.2221875,12.9044079 8.623125,11.4998026 8.623125,9.94736842 C8.6203125,9.69868421 8.6671875,9.45921053 8.6953125,9.21513158 Z" id="Shape" fill="#000000" fill-rule="nonzero" opacity="0.4"></path>
                    </g>
                </g>
            </g>
        </g>
    </g>
</svg>