<?xml version="1.0" encoding="UTF-8"?>
<svg width="20px" height="19px" viewBox="0 0 20 19" version="1.1" xmlns="http://www.w3.org/2000/svg" xmlns:xlink="http://www.w3.org/1999/xlink">
    <title>73D05320-243F-4DC8-9E54-D5BB06679EC1</title>
    <g id="Page-1" stroke="none" stroke-width="1" fill="none" fill-rule="evenodd">
        <g id="2.2-Home---notifications" transform="translate(-446.000000, -730.000000)">
            <g id="Group-2-Copy-3" transform="translate(437.000000, 710.000000)">
                <g id="Group-3" transform="translate(9.000000, 20.000000)">
                    <path d="M19.4582861,13.5823153 L12.5021887,1.49724553 C11.3660036,-0.499081844 8.49291277,-0.499081844 7.3606825,1.49724553 L0.400489027,13.5823153 C-0.735696136,15.5787843 0.678461727,18.0589282 2.97117152,18.0589282 L16.8630267,18.0589282 C19.1558778,18.0589282 20.5944712,15.5541331 19.4582861,13.5823153" id="Fill-176-Copy" fill="#FFFFFE"></path>
                    <path d="M10.9448926,6.30960113 C10.8958801,7.17041194 10.8426303,8.02725588 10.7936178,8.8880667 C10.7691822,9.16688099 10.7691822,9.42104403 10.7691822,9.69574978 C10.7446053,10.1508065 10.3890884,10.5032912 9.93540534,10.5032912 C9.48172226,10.5032912 9.13030148,10.175316 9.10162849,9.72025937 C9.02803917,8.3798823 8.95035371,7.06387315 8.87676439,5.7233544 C8.85232878,5.37086966 8.82775193,5.0141347 8.79907893,4.66164996 C8.79907893,4.07951177 9.12606409,3.59994551 9.65743264,3.44821273 C10.1888012,3.32113121 10.7159323,3.57529425 10.9448926,4.07951177 C11.022578,4.25575414 11.0470136,4.43199651 11.0470136,4.63699869 C11.022578,5.19859416 10.9693282,5.75608108 10.9448926,6.30960113" id="Fill-178-Copy" fill="#DC7F2E"></path>
                    <path d="M9.93540534,14.4917611 C9.33044748,14.4917611 8.82775193,13.9875436 8.82775193,13.3807541 C8.82775193,12.7741064 9.33044748,12.2698888 9.93540534,12.2698888 C10.540222,12.2698888 11.0429175,12.7741064 11.0184819,13.4095139 C11.0470136,13.9875436 10.5157864,14.4917611 9.93540534,14.4917611" id="Fill-177-Copy" fill="#DC7F2E"></path>
                </g>
            </g>
        </g>
    </g>
</svg>